<svg width="16" height="16" viewBox="0 0 16 16" fill="none" xmlns="http://www.w3.org/2000/svg">
<g clip-path="url(#clip0_1_2)">
<g clip-path="url(#clip1_1_2)">
<path d="M8.23438 0.890625H11.7891C12.4363 0.890625 12.9609 1.41529 12.9609 2.0625V9.21094C12.9609 9.85815 12.4363 10.3828 11.7891 10.3828H8.23438V0.890625Z" fill="black"/>
<path d="M3.03906 2.0625C3.03906 1.41529 3.56373 0.890625 4.21094 0.890625H7.76562V5.61719H4.21094C3.56373 5.61719 3.03906 5.09252 3.03906 4.44531V2.0625Z" fill="black"/>
<path d="M3.03906 7.25781C3.03906 6.6106 3.56373 6.08594 4.21094 6.08594H7.76562V13.9375C7.76562 14.5847 7.24096 15.1094 6.59375 15.1094H4.21094C3.56373 15.1094 3.03906 14.5847 3.03906 13.9375V7.25781Z" fill="black"/>
</g>
</g>
<defs>
<clipPath id="clip0_1_2">
<rect width="16" height="16" fill="white"/>
</clipPath>
<clipPath id="clip1_1_2">
<rect width="9.96094" height="14.2188" fill="white" transform="translate(3 0.890625)"/>
</clipPath>
</defs>
</svg>
